<svg width="40" height="40" viewBox="0 0 40 40" fill="none" xmlns="http://www.w3.org/2000/svg">
<rect x="1" y="1" width="38" height="38" rx="19" stroke="#E6E8EC" stroke-width="2"/>
<path fill-rule="evenodd" clip-rule="evenodd" d="M22.0909 15.2652C22.4968 14.8906 23.1294 14.9159 23.504 15.3217L26.7348 18.8217C27.0884 19.2047 27.0884 19.7952 26.7348 20.1782L23.504 23.6783C23.1294 24.0841 22.4968 24.1094 22.091 23.7348C21.6851 23.3602 21.6598 22.7276 22.0344 22.3217L23.716 20.5L14 20.5C13.4477 20.5 13 20.0523 13 19.5C13 18.9477 13.4477 18.5 14 18.5L23.716 18.5L22.0344 16.6783C21.6598 16.2725 21.6851 15.6398 22.0909 15.2652Z" fill="#777E91"/>
</svg>
